<svg width="420" height="360" viewBox="0 0 360 320" xmlns="http://www.w3.org/2000/svg">
  <defs>
    <linearGradient id="grad-primary" x1="0%" y1="0%" x2="100%" y2="100%">
      <stop offset="0%" stop-color="#37F1A3" />
      <stop offset="100%" stop-color="#29C9F6" />
    </linearGradient>
    <linearGradient id="grad-byte" x1="0%" y1="0%" x2="100%" y2="0%">
      <stop offset="0%" stop-color="#37F1A3" />
      <stop offset="100%" stop-color="#31F1D0" />
    </linearGradient>
  </defs>

  <g fill="none" stroke="#38F0C6" stroke-width="1.4" stroke-linecap="round" stroke-linejoin="round" opacity="0.88">
    <path d="M18 196L60 130L110 196L150 130L206 190L254 134L314 194" />
    <path d="M40 68L60 130L108 72L152 118L206 62L248 110L306 74" />
    <path d="M56 232L86 158L134 224L186 158L240 218L282 162" />
    <path d="M18 196L40 68L94 130L18 196" />
    <path d="M314 194L338 114L248 110L314 194" />
    <path d="M86 158L60 130L108 72L150 132L186 160L206 192" />
    <path d="M248 134L186 160L240 218" />
    <path d="M108 72L150 50L206 62L258 46" />
    <path d="M40 68L58 28L108 72" />
    <path d="M282 162L338 114L356 152" />
  </g>

  <g>
    <rect x="128" y="88" width="56" height="56" rx="14" fill="#33D9B9" />
    <rect x="166" y="88" width="56" height="56" rx="14" fill="#34EACF" />
    <rect x="128" y="126" width="56" height="56" rx="14" fill="#1EBBD4" />
    <rect x="166" y="126" width="56" height="56" rx="14" fill="#1FB9FF" />
    <rect x="147" y="107" width="56" height="56" rx="18" fill="url(#grad-primary)" opacity="0.75" />
  </g>

  <text x="180" y="232" text-anchor="middle" font-family="'Inter', 'Montserrat', sans-serif" font-weight="700" font-size="48" letter-spacing="6" fill="#FFFFFF">
    URBAN
  </text>

  <g font-family="'Inter', 'Montserrat', sans-serif" font-weight="700" font-size="44" letter-spacing="10" fill="url(#grad-byte)" transform="translate(85 286)">
    <text x="0" y="0">B</text>
    <text x="62" y="0">Y</text>
    <text x="118" y="0">T</text>
  </g>

  <g fill="url(#grad-byte)" transform="translate(257 258)">
    <rect x="0" y="0" width="52" height="6.4" rx="3.2" />
    <rect x="0" y="18" width="52" height="6.4" rx="3.2" />
    <rect x="0" y="36" width="52" height="6.4" rx="3.2" />
  </g>
</svg>
